# xmcd CD database file
#
# Track frame offsets:
#	150
#	18383
#	40065
#	61390
#	87128
#	105361
#
# Disc length: 2014 seconds
#
# Revision: 0
# Processed by: cddbd v1.5.1PL0 Copyright (c) Steve Scherf et al.
# Submitted via: CDex 1.51
#
DISCID=3c07dc06
DTITLE=Water Clock - DREAM
DYEAR=1900
DGENRE=J ポップ
TTITLE0=泉の詩
TTITLE1=夢の飛行船 (new recording)
TTITLE2=天球の行方
TTITLE3=WANDERING LOVERS
TTITLE4=泉の詩 (karaoke)
TTITLE5=夢の飛行船 (1998 remix)
EXTD=
EXTT0=
EXTT1=
EXTT2=
EXTT3=
EXTT4=
EXTT5=
PLAYORDER=
